<?xml version="1.0" standalone="no"?>
<!DOCTYPE svg PUBLIC "-//W3C//DTD SVG 20010904//EN"
 "http://www.w3.org/TR/2001/REC-SVG-20010904/DTD/svg10.dtd">
<svg version="1.0" xmlns="http://www.w3.org/2000/svg"
 width="500.000000pt" height="500.000000pt" viewBox="0 0 500.000000 500.000000"
 preserveAspectRatio="xMidYMid meet">
<metadata>
Created by potrace 1.11, written by Peter Selinger 2001-2013
</metadata>
<g transform="translate(0.000000,500.000000) scale(0.100000,-0.100000)"
fill="#000000" stroke="none">
<path d="M1282 4003 c-10 -4 -10 -8 0 -21 10 -14 10 -15 -2 -4 -8 6 -17 12
-22 12 -14 0 -78 -62 -78 -75 0 -7 -5 -15 -11 -17 -6 -2 -13 -25 -16 -51 -6
-51 12 -111 31 -100 6 3 7 2 3 -2 -4 -5 -15 -10 -23 -11 -9 -1 -14 0 -11 3 12
11 -55 60 -108 79 -34 11 -67 10 -81 -3 -7 -7 -14 -9 -16 -3 -2 6 -14 4 -30
-4 -15 -8 -30 -11 -34 -8 -4 4 -5 -5 -2 -20 3 -16 1 -25 -5 -21 -5 3 -6 -3 -3
-15 4 -11 9 -30 11 -41 7 -35 95 -141 95 -115 0 5 4 3 9 -5 6 -9 30 -13 80
-13 40 0 71 -4 71 -9 0 -6 -5 -7 -11 -3 -15 9 -111 -59 -132 -95 -19 -33 -28
-91 -20 -133 5 -28 30 -40 93 -44 41 -2 92 14 84 27 -3 5 1 7 8 4 16 -6 66 34
70 55 2 8 6 18 10 21 5 3 10 19 11 36 2 16 7 35 11 42 4 7 2 20 -6 29 -12 15
-11 16 4 4 9 -7 20 -28 24 -45 3 -17 10 -38 15 -47 4 -8 10 -23 13 -33 3 -10
10 -16 15 -12 5 3 13 0 17 -6 4 -8 3 -9 -4 -5 -27 16 -9 -15 21 -37 36 -27 66
-39 114 -43 24 -2 36 3 48 22 19 29 31 115 20 141 -4 10 -10 26 -12 36 -6 32
-37 65 -76 83 -21 10 -41 22 -44 27 -3 5 2 5 13 0 40 -20 163 17 156 47 -1 6
2 9 7 6 11 -7 51 58 51 83 0 18 -27 46 -72 74 -41 26 -135 28 -178 4 -25 -14
-31 -15 -21 -4 19 23 22 103 6 140 -28 63 -57 85 -93 70z m22 -61 c2 -4 -5 -9
-17 -9 -17 -2 -19 0 -7 7 18 12 18 12 24 2z m42 -27 c-1 -8 -5 -17 -8 -21 -5
-4 -4 16 1 34 3 9 9 -1 7 -13z m-56 -20 c0 -2 -9 -3 -19 -2 -11 0 -18 5 -15 9
4 6 34 0 34 -7z m17 -47 c2 -17 0 -19 -7 -8 -5 8 -6 18 -4 22 8 12 10 10 11
-14z m-62 -27 c-9 -8 -36 -10 -30 -2 2 4 11 8 20 8 8 0 13 -3 10 -6z m38 -36
c-3 -9 -8 -14 -10 -11 -3 3 -2 9 2 15 9 16 15 13 8 -4z m144 0 c0 -8 -4 -12
-9 -9 -5 3 -6 10 -3 15 9 13 12 11 12 -6z m-437 -1 c0 -8 -19 -13 -24 -6 -3 5
1 9 9 9 8 0 15 -2 15 -3z m50 0 c0 -8 -19 -13 -24 -6 -3 5 1 9 9 9 8 0 15 -2
15 -3z m426 -9 c-1 -8 -5 -17 -8 -21 -5 -4 -4 16 1 34 3 9 9 -1 7 -13z m-520
-31 c1 -9 0 -13 -4 -10 -3 4 -7 14 -8 22 -1 9 0 13 4 10 3 -4 7 -14 8 -22z
m280 0 c1 -9 0 -13 -4 -10 -3 4 -7 14 -8 22 -1 9 0 13 4 10 3 -4 7 -14 8 -22z
m-119 1 c0 -8 -4 -12 -9 -9 -5 3 -6 10 -3 15 9 13 12 11 12 -6z m298 -4 c-9
-8 -36 -10 -30 -2 2 4 11 8 20 8 8 0 13 -3 10 -6z m142 -6 c0 -8 -4 -12 -9 -9
-5 3 -6 10 -3 15 9 13 12 11 12 -6z m-492 -15 c-3 -5 -12 -10 -18 -10 -7 0 -6
4 3 10 19 12 23 12 15 0z m-69 -36 c1 -9 0 -13 -4 -10 -3 4 -7 14 -8 22 -1 9
0 13 4 10 3 -4 7 -14 8 -22z m120 0 c1 -9 0 -13 -4 -10 -3 4 -7 14 -8 22 -1 9
0 13 4 10 3 -4 7 -14 8 -22z m300 14 c3 -4 -1 -5 -10 -4 -8 1 -18 5 -22 8 -3
4 1 5 10 4 8 -1 18 -5 22 -8z m59 3 c-9 -8 -36 -10 -30 -2 2 4 11 8 20 8 8 0
13 -3 10 -6z m61 -3 c3 -4 -1 -5 -10 -4 -8 1 -18 5 -22 8 -3 4 1 5 10 4 8 -1
18 -5 22 -8z m59 3 c-9 -8 -36 -10 -30 -2 2 4 11 8 20 8 8 0 13 -3 10 -6z
m-520 -33 c5 4 5 1 1 -6 -6 -10 -11 -10 -22 -1 -8 6 -14 14 -14 16 0 3 6 0 13
-6 8 -6 18 -7 22 -3z m81 -44 c1 -9 0 -13 -4 -10 -3 4 -7 14 -8 22 -1 9 0 13
4 10 3 -4 7 -14 8 -22z m-120 -6 c3 -4 -1 -5 -10 -4 -8 1 -18 5 -22 8 -3 4 1
5 10 4 8 -1 18 -5 22 -8z m59 3 c-9 -8 -36 -10 -30 -2 2 4 11 8 20 8 8 0 13
-3 10 -6z m299 1 c3 -5 -1 -9 -9 -9 -8 0 -12 4 -9 9 3 4 7 8 9 8 2 0 6 -4 9
-8z m50 0 c3 -5 -1 -9 -9 -9 -8 0 -12 4 -9 9 3 4 7 8 9 8 2 0 6 -4 9 -8z m32
-18 c1 -9 0 -13 -4 -10 -3 4 -7 14 -8 22 -1 9 0 13 4 10 3 -4 7 -14 8 -22z
m-287 -48 c9 -11 9 -16 -1 -22 -7 -4 -10 -4 -6 1 4 4 3 14 -3 22 -6 7 -9 13
-6 13 2 0 10 -6 16 -14z m185 6 c3 -5 -1 -9 -9 -9 -8 0 -12 4 -9 9 3 4 7 8 9
8 2 0 6 -4 9 -8z m-58 -38 c1 -9 0 -13 -4 -10 -3 4 -7 14 -8 22 -1 9 0 13 4
10 3 -4 7 -14 8 -22z m120 0 c1 -9 0 -13 -4 -10 -3 4 -7 14 -8 22 -1 9 0 13 4
10 3 -4 7 -14 8 -22z m40 -9 c-1 -8 -5 -17 -8 -21 -5 -4 -4 16 1 34 3 9 9 -1
7 -13z m-361 -14 c-9 -8 -36 -10 -30 -2 2 4 11 8 20 8 8 0 13 -3 10 -6z m61
-3 c3 -4 -1 -5 -10 -4 -8 1 -18 5 -22 8 -3 4 1 5 10 4 8 -1 18 -5 22 -8z m180
-40 c3 -4 -1 -5 -10 -4 -8 1 -18 5 -22 8 -3 4 1 5 10 4 8 -1 18 -5 22 -8z
m160 -14 c1 -9 0 -13 -4 -10 -3 4 -7 14 -8 22 -1 9 0 13 4 10 3 -4 7 -14 8
-22z m-461 -23 c-9 -8 -36 -10 -30 -2 2 4 11 8 20 8 8 0 13 -3 10 -6z m142 2
c-4 -3 -1 -13 6 -22 11 -14 10 -14 -5 -2 -16 12 -16 31 -1 31 4 0 3 -3 0 -7z
m183 -23 c0 -5 -2 -10 -4 -10 -3 0 -8 5 -11 10 -3 6 -1 10 4 10 6 0 11 -4 11
-10z m-245 -19 c-9 -8 -36 -10 -30 -2 2 4 11 8 20 8 8 0 13 -3 10 -6z m20 -40
c3 -5 2 -12 -3 -15 -5 -3 -9 1 -9 9 0 17 3 19 12 6z m240 0 c3 -5 2 -12 -3
-15 -5 -3 -9 1 -9 9 0 17 3 19 12 6z m105 5 c0 -3 -4 -8 -10 -11 -5 -3 -10 -1
-10 4 0 6 5 11 10 11 6 0 10 -2 10 -4z"/>
<path d="M3853 3998 c-13 -6 -23 -15 -23 -20 0 -5 -3 -7 -8 -4 -24 15 -87 -82
-91 -141 -1 -23 3 -51 9 -63 17 -32 7 -34 -26 -7 -41 34 -93 59 -110 53 -8 -3
-14 -1 -14 3 0 10 -22 6 -92 -16 -43 -13 -47 -17 -38 -34 8 -13 7 -19 0 -19
-6 0 -9 -4 -6 -8 3 -5 7 -20 10 -35 6 -33 49 -91 88 -119 23 -16 45 -21 96
-21 37 0 61 -2 54 -4 -6 -3 -9 -10 -6 -15 4 -7 2 -8 -4 -4 -15 9 -83 -37 -112
-76 -23 -32 -39 -138 -20 -138 5 0 7 -7 4 -14 -7 -19 46 -34 105 -30 77 6 168
78 146 115 -5 8 -4 10 3 5 7 -4 14 4 17 21 3 15 10 42 14 58 l9 30 1 -27 c1
-15 6 -30 11 -33 6 -4 8 -11 4 -16 -3 -5 0 -16 6 -24 7 -8 10 -15 6 -15 -11 0
26 -53 56 -82 31 -30 101 -54 106 -38 2 6 8 10 13 10 6 0 7 -4 4 -10 -3 -5 3
-10 15 -10 12 0 19 4 16 9 -4 5 -1 11 6 13 7 3 12 21 12 41 0 20 3 31 7 25 17
-27 6 80 -13 123 -15 35 -30 52 -63 70 l-44 24 47 2 c25 0 48 5 50 11 2 6 9 9
16 6 17 -7 90 62 81 76 -3 5 -2 10 4 10 17 0 22 36 10 64 -7 14 -16 26 -22 26
-5 0 -21 9 -37 20 -35 25 -125 33 -162 14 -36 -19 -39 -18 -28 10 9 26 -9 53
-25 38 -5 -4 -5 -1 -1 6 6 10 11 10 22 1 11 -9 14 -6 14 18 0 16 -3 33 -7 37
-5 4 -8 11 -8 14 -1 19 -27 52 -37 46 -6 -4 -8 -3 -5 2 3 6 2 16 -3 24 -7 12
-11 12 -26 -1 -11 -9 -15 -9 -10 -1 8 14 8 14 -21 0z m13 -74 c1 -9 0 -13 -4
-10 -3 4 -7 14 -8 22 -1 9 0 13 4 10 3 -4 7 -14 8 -22z m-79 -19 c0 -8 -4 -12
-9 -9 -5 3 -6 10 -3 15 9 13 12 11 12 -6z m160 -10 c0 -8 -4 -12 -9 -9 -5 3
-6 10 -3 15 9 13 12 11 12 -6z m-157 -71 c0 -8 -19 -13 -24 -6 -3 5 1 9 9 9 8
0 15 -2 15 -3z m44 -2 c3 -5 -1 -9 -9 -9 -8 0 -12 4 -9 9 3 4 7 8 9 8 2 0 6
-4 9 -8z m36 -22 c0 -5 -2 -10 -4 -10 -3 0 -8 5 -11 10 -3 6 -1 10 4 10 6 0
11 -4 11 -10z m-285 -9 c3 -5 2 -12 -3 -15 -5 -3 -9 1 -9 9 0 17 3 19 12 6z
m-75 -7 c0 -8 -19 -13 -24 -6 -3 5 1 9 9 9 8 0 15 -2 15 -3z m116 -9 c-1 -8
-5 -17 -8 -21 -5 -4 -4 16 1 34 3 9 9 -1 7 -13z m180 3 c3 -4 -1 -5 -10 -4 -8
1 -18 5 -22 8 -3 4 1 5 10 4 8 -1 18 -5 22 -8z m108 4 c3 -5 -1 -9 -9 -9 -8 0
-12 4 -9 9 3 4 7 8 9 8 2 0 6 -4 9 -8z m112 -4 c4 -7 4 -10 -1 -6 -4 4 -15 2
-24 -5 -14 -11 -14 -10 -2 6 16 20 18 21 27 5z m54 6 c0 -8 -19 -13 -24 -6 -3
5 1 9 9 9 8 0 15 -2 15 -3z m26 -29 c-1 -8 -5 -17 -8 -21 -5 -4 -4 16 1 34 3
9 9 -1 7 -13z m-159 -10 c0 -8 -4 -12 -9 -9 -5 3 -6 10 -3 15 9 13 12 11 12
-6z m-381 -7 c3 -4 -1 -5 -10 -4 -8 1 -18 5 -22 8 -3 4 1 5 10 4 8 -1 18 -5
22 -8z m79 -7 c3 -5 2 -12 -3 -15 -5 -3 -9 1 -9 9 0 17 3 19 12 6z m365 5 c0
-2 -8 -10 -17 -17 -16 -13 -17 -12 -4 4 13 16 21 21 21 13z m50 -12 c0 -8 -19
-13 -24 -6 -3 5 1 9 9 9 8 0 15 -2 15 -3z m-473 -19 c0 -8 -4 -12 -9 -9 -5 3
-6 10 -3 15 9 13 12 11 12 -6z m359 -21 c1 -9 0 -13 -4 -10 -3 4 -7 14 -8 22
-1 9 0 13 4 10 3 -4 7 -14 8 -22z m84 16 c0 -5 -5 -10 -11 -10 -5 0 -7 5 -4
10 3 6 8 10 11 10 2 0 4 -4 4 -10z m116 -5 c-1 -8 -5 -17 -8 -21 -5 -4 -4 16
1 34 3 9 9 -1 7 -13z m-520 -31 c1 -9 0 -13 -4 -10 -3 4 -7 14 -8 22 -1 9 0
13 4 10 3 -4 7 -14 8 -22z m464 12 c0 -2 -6 -9 -14 -15 -11 -9 -16 -9 -22 0
-4 7 -3 9 4 5 6 -3 13 -2 17 4 6 10 15 14 15 6z m-506 -15 c3 -5 -2 -15 -12
-22 -15 -12 -16 -12 -5 2 7 9 10 19 6 22 -3 4 -4 7 0 7 3 0 8 -4 11 -9z m162
-3 c3 -4 -1 -5 -10 -4 -8 1 -18 5 -22 8 -3 4 1 5 10 4 8 -1 18 -5 22 -8z m240
-23 c-1 -8 -5 -17 -8 -21 -5 -4 -4 16 1 34 3 9 9 -1 7 -13z m-320 -31 c1 -9 0
-13 -4 -10 -3 4 -7 14 -8 22 -1 9 0 13 4 10 3 -4 7 -14 8 -22z m44 20 c0 -8
-19 -13 -24 -6 -3 5 1 9 9 9 8 0 15 -2 15 -3z m50 0 c0 -8 -19 -13 -24 -6 -3
5 1 9 9 9 8 0 15 -2 15 -3z m306 -6 c3 -4 -1 -5 -10 -4 -8 1 -18 5 -22 8 -3 4
1 5 10 4 8 -1 18 -5 22 -8z m-301 -57 c3 -5 2 -12 -3 -15 -5 -3 -9 1 -9 9 0
17 3 19 12 6z m161 -23 c3 -4 -1 -5 -10 -4 -8 1 -18 5 -22 8 -3 4 1 5 10 4 8
-1 18 -5 22 -8z m-166 -34 c0 -8 -19 -13 -24 -6 -3 5 1 9 9 9 8 0 15 -2 15 -3z
m226 -6 c3 -4 -1 -5 -10 -4 -8 1 -18 5 -22 8 -3 4 1 5 10 4 8 -1 18 -5 22 -8z
m59 3 c-9 -8 -36 -10 -30 -2 2 4 11 8 20 8 8 0 13 -3 10 -6z m-339 -26 c-1 -8
-5 -17 -8 -21 -5 -4 -4 16 1 34 3 9 9 -1 7 -13z m381 0 c0 -8 -4 -12 -9 -9 -5
3 -6 10 -3 15 9 13 12 11 12 -6z m-260 -10 c0 -8 -4 -12 -9 -9 -5 3 -6 10 -3
15 9 13 12 11 12 -6z m118 6 c3 -5 2 -12 -3 -15 -5 -3 -9 1 -9 9 0 17 3 19 12
6z m-279 -27 c1 -9 0 -13 -4 -10 -3 4 -7 14 -8 22 -1 9 0 13 4 10 3 -4 7 -14
8 -22z m379 17 c-9 -8 -36 -10 -30 -2 2 4 11 8 20 8 8 0 13 -3 10 -6z m-279
-16 c-1 -8 -5 -17 -8 -21 -5 -4 -4 16 1 34 3 9 9 -1 7 -13z m-181 -24 c3 -5 2
-12 -3 -15 -5 -3 -9 1 -9 9 0 17 3 19 12 6z m520 0 c-9 -8 -36 -10 -30 -2 2 4
11 8 20 8 8 0 13 -3 10 -6z m-500 -40 c-9 -8 -36 -10 -30 -2 2 4 11 8 20 8 8
0 13 -3 10 -6z m121 -3 c3 -4 -1 -5 -10 -4 -8 1 -18 5 -22 8 -3 4 1 5 10 4 8
-1 18 -5 22 -8z m240 0 c3 -4 -1 -5 -10 -4 -8 1 -18 5 -22 8 -3 4 1 5 10 4 8
-1 18 -5 22 -8z m119 3 c-9 -8 -36 -10 -30 -2 2 4 11 8 20 8 8 0 13 -3 10 -6z
m-419 -43 c3 -4 -1 -5 -10 -4 -8 1 -18 5 -22 8 -3 4 1 5 10 4 8 -1 18 -5 22
-8z m320 -14 c1 -9 0 -13 -4 -10 -3 4 -7 14 -8 22 -1 9 0 13 4 10 3 -4 7 -14
8 -22z"/>
<path d="M1912 3914 c-42 -29 -20 -113 55 -218 33 -47 35 -52 23 -81 -41 -99
-49 -192 -25 -285 17 -64 41 -106 91 -160 l45 -48 -31 -10 c-40 -15 -112 -65
-156 -110 -102 -104 -139 -307 -84 -455 49 -132 152 -211 326 -253 95 -23 314
-23 410 -1 181 42 347 155 406 276 30 61 37 170 13 194 -9 9 -19 17 -23 17 -4
0 -34 -26 -67 -58 -110 -104 -188 -155 -284 -187 -42 -14 -76 -17 -157 -13
-91 4 -111 8 -169 37 -48 24 -73 44 -93 74 -25 37 -27 49 -27 136 0 112 18
170 69 221 l33 34 119 1 c136 0 176 14 199 67 31 76 -25 121 -158 125 -48 1
-93 5 -98 9 -23 14 -69 130 -69 172 0 23 2 42 4 42 2 0 34 -16 70 -35 159 -84
384 -67 494 38 100 95 103 248 8 341 -65 62 -117 78 -271 82 -161 4 -241 -12
-371 -72 -28 -13 -57 -24 -64 -24 -6 0 -44 31 -84 69 -89 86 -106 95 -134 75z
m705 -264 c54 -19 70 -95 25 -119 -27 -15 -106 -20 -158 -10 -58 11 -154 48
-154 59 0 14 60 52 103 66 52 16 144 18 184 4z"/>
<path d="M563 3418 c-31 -22 -47 -47 -20 -32 7 4 9 3 4 -2 -5 -5 -13 -9 -19
-9 -5 0 -16 -15 -23 -32 -8 -18 -10 -33 -5 -33 4 0 6 -9 3 -20 -3 -12 0 -20 8
-20 7 0 9 -3 5 -7 -10 -11 -66 -11 -60 -1 3 5 11 5 17 2 7 -4 5 1 -4 10 -26
28 -140 42 -123 14 4 -7 3 -8 -5 -4 -21 14 -50 -3 -46 -27 12 -63 18 -76 43
-100 36 -34 75 -48 120 -42 l37 5 -36 -20 c-61 -32 -89 -74 -89 -130 0 -51 2
-54 61 -64 31 -5 96 23 122 52 10 11 19 36 20 56 3 46 24 47 33 1 8 -43 61
-104 94 -108 14 -1 28 -6 32 -12 5 -6 8 -5 8 2 0 7 6 10 14 7 17 -7 32 18 39
64 5 28 3 32 -10 28 -13 -5 -14 -4 -3 9 10 12 10 21 0 45 -19 46 -39 58 -56
35 -8 -10 -14 -14 -14 -9 0 6 5 15 12 22 9 9 8 12 -5 12 -9 0 -17 4 -17 9 0 6
10 8 23 5 51 -9 126 43 133 93 4 25 -16 55 -32 49 -7 -3 -13 0 -11 7 1 7 -18
16 -47 21 -39 8 -54 7 -76 -6 l-27 -15 7 38 c5 28 3 45 -8 60 -10 14 -11 19
-3 14 10 -6 11 -3 2 14 -11 20 -41 41 -58 41 -5 0 -23 -10 -40 -22z m42 -37
c-9 -8 -36 -10 -30 -2 2 4 11 8 20 8 8 0 13 -3 10 -6z m-30 -61 c3 -6 -1 -7
-9 -4 -18 7 -21 14 -7 14 6 0 13 -4 16 -10z m-21 -18 c3 -5 -1 -9 -9 -9 -8 0
-12 4 -9 9 3 4 7 8 9 8 2 0 6 -4 9 -8z m87 -9 c12 -16 12 -17 -2 -6 -9 7 -20
9 -24 5 -5 -4 -5 -1 -1 6 9 16 11 15 27 -5z m144 -22 c3 -5 2 -12 -3 -15 -5
-3 -9 1 -9 9 0 17 3 19 12 6z m-420 -10 c-9 -8 -36 -10 -30 -2 2 4 11 8 20 8
8 0 13 -3 10 -6z m20 -30 c3 -5 2 -12 -3 -15 -5 -3 -9 1 -9 9 0 17 3 19 12 6z
m321 -27 c1 -9 0 -13 -4 -10 -3 4 -7 14 -8 22 -1 9 0 13 4 10 3 -4 7 -14 8
-22z m40 11 c-1 -8 -5 -17 -8 -21 -5 -4 -4 16 1 34 3 9 9 -1 7 -13z m44 -35
c0 -5 -2 -10 -4 -10 -3 0 -8 5 -11 10 -3 6 -1 10 4 10 6 0 11 -4 11 -10z m-56
-18 c3 -5 -1 -9 -9 -9 -8 0 -12 4 -9 9 3 4 7 8 9 8 2 0 6 -4 9 -8z m-309 -21
c3 -5 2 -12 -3 -15 -5 -3 -9 1 -9 9 0 17 3 19 12 6z m40 -70 c3 -5 2 -12 -3
-15 -5 -3 -9 1 -9 9 0 17 3 19 12 6z m165 -7 c0 -8 -19 -13 -24 -6 -3 5 1 9 9
9 8 0 15 -2 15 -3z m55 -3 c-9 -8 -36 -10 -30 -2 2 4 11 8 20 8 8 0 13 -3 10
-6z m-139 -37 c1 -9 0 -13 -4 -10 -3 4 -7 14 -8 22 -1 9 0 13 4 10 3 -4 7 -14
8 -22z m200 11 c-1 -8 -5 -17 -8 -21 -5 -4 -4 16 1 34 3 9 9 -1 7 -13z m-301
-14 c-9 -8 -36 -10 -30 -2 2 4 11 8 20 8 8 0 13 -3 10 -6z m-35 -41 c0 -5 -5
-10 -11 -10 -5 0 -7 5 -4 10 3 6 8 10 11 10 2 0 4 -4 4 -10z m96 -16 c1 -9 0
-13 -4 -10 -3 4 -7 14 -8 22 -1 9 0 13 4 10 3 -4 7 -14 8 -22z m239 -23 c-9
-8 -36 -10 -30 -2 2 4 11 8 20 8 8 0 13 -3 10 -6z"/>
<path d="M4468 3230 c-27 -8 -58 -32 -58 -45 0 -3 5 -3 12 1 7 4 8 3 4 -5 -4
-6 -12 -9 -17 -6 -16 11 -30 -47 -24 -98 l7 -49 -29 31 c-15 18 -39 33 -53 35
-14 1 -31 6 -38 10 -6 4 -20 3 -29 -3 -10 -5 -21 -8 -25 -8 -4 1 -17 -6 -28
-16 -46 -39 21 -143 104 -163 17 -4 27 -3 23 2 -3 6 8 10 24 9 39 0 37 -7 -11
-34 -59 -33 -80 -65 -80 -122 0 -26 5 -51 11 -54 17 -11 103 -9 107 3 2 6 9 9
15 7 18 -6 60 32 51 46 -4 7 -3 9 4 6 6 -5 13 8 17 33 8 50 22 51 31 4 4 -19
13 -38 20 -41 8 -3 12 -8 9 -13 -8 -13 41 -50 71 -54 16 -2 35 -6 43 -8 21 -4
45 50 43 95 -1 42 -33 103 -51 100 -6 -2 -11 2 -11 7 0 6 -7 10 -15 10 -8 0
-15 4 -15 9 0 4 10 6 23 4 36 -7 94 22 117 59 26 43 25 54 -6 83 -30 28 -89
40 -136 27 l-33 -9 3 51 c3 41 -1 57 -18 79 -23 29 -22 29 -62 17z m-2 -86 c1
-9 0 -13 -4 -10 -3 4 -7 14 -8 22 -1 9 0 13 4 10 3 -4 7 -14 8 -22z m-256 -84
c0 -5 -5 -10 -11 -10 -5 0 -7 5 -4 10 3 6 8 10 11 10 2 0 4 -4 4 -10z m75 1
c-9 -8 -36 -10 -30 -2 2 4 11 8 20 8 8 0 13 -3 10 -6z m165 -1 c0 -5 -5 -10
-11 -10 -5 0 -7 5 -4 10 3 6 8 10 11 10 2 0 4 -4 4 -10z m195 1 c-9 -8 -36
-10 -30 -2 2 4 11 8 20 8 8 0 13 -3 10 -6z m-62 -36 c-7 -21 -12 -19 -10 4 0
11 5 18 9 15 4 -3 5 -11 1 -19z m84 -17 c2 -17 0 -19 -7 -8 -5 8 -6 18 -4 22
8 12 10 10 11 -14z m-417 -2 c0 -3 -4 -8 -10 -11 -5 -3 -10 -1 -10 4 0 6 5 11
10 11 6 0 10 -2 10 -4z m297 -21 c0 -8 -4 -12 -9 -9 -5 3 -6 10 -3 15 9 13 12
11 12 -6z m-161 -10 c-1 -8 -5 -17 -8 -21 -5 -4 -4 16 1 34 3 9 9 -1 7 -13z
m240 0 c-1 -8 -5 -17 -8 -21 -5 -4 -4 16 1 34 3 9 9 -1 7 -13z m-356 -15 c0
-5 -5 -10 -11 -10 -5 0 -7 5 -4 10 3 6 8 10 11 10 2 0 4 -4 4 -10z m277 -55
c0 -8 -4 -12 -9 -9 -5 3 -6 10 -3 15 9 13 12 11 12 -6z m-162 -25 c3 -5 1 -10
-4 -10 -6 0 -11 5 -11 10 0 6 2 10 4 10 3 0 8 -4 11 -10z m162 -25 c0 -8 -4
-12 -9 -9 -5 3 -6 10 -3 15 9 13 12 11 12 -6z m43 5 c0 -5 -2 -10 -4 -10 -3 0
-8 5 -11 10 -3 6 -1 10 4 10 6 0 11 -4 11 -10z m-262 -25 c-3 -3 -9 2 -12 12
-6 14 -5 15 5 6 7 -7 10 -15 7 -18z m103 8 c13 -16 12 -17 -3 -4 -17 13 -22
21 -14 21 2 0 10 -8 17 -17z m195 -39 c1 -9 0 -13 -4 -10 -3 4 -7 14 -8 22 -1
9 0 13 4 10 3 -4 7 -14 8 -22z m-236 2 c0 -3 -4 -8 -10 -11 -5 -3 -10 -1 -10
4 0 6 5 11 10 11 6 0 10 -2 10 -4z m180 -26 c0 -5 -2 -10 -4 -10 -3 0 -8 5
-11 10 -3 6 -1 10 4 10 6 0 11 -4 11 -10z m-224 -42 c3 -4 -1 -5 -10 -4 -8 1
-18 5 -22 8 -3 4 1 5 10 4 8 -1 18 -5 22 -8z m234 6 c0 -8 -19 -13 -24 -6 -3
5 1 9 9 9 8 0 15 -2 15 -3z"/>
<path d="M1290 3081 c0 -6 -6 -10 -12 -8 -7 1 -12 -4 -10 -12 2 -11 0 -12 -10
-4 -17 15 -63 -20 -52 -39 4 -7 4 -10 -1 -6 -18 17 -55 -55 -55 -108 0 -19 6
-50 14 -69 9 -21 11 -37 5 -41 -5 -3 -9 -2 -8 3 7 29 -69 92 -92 77 -7 -4 -9
-3 -5 4 7 12 -27 26 -65 25 -40 0 -133 -34 -119 -43 8 -5 8 -10 2 -14 -12 -7
3 -82 24 -114 8 -12 20 -20 26 -16 6 4 8 3 5 -3 -4 -6 9 -23 29 -38 37 -29 87
-37 137 -24 15 4 27 4 27 -2 0 -5 -5 -9 -11 -9 -5 0 -7 -6 -3 -12 4 -7 4 -10
-1 -6 -9 9 -51 -12 -86 -44 -32 -28 -63 -88 -46 -88 8 0 8 -3 -1 -9 -15 -9
-13 -42 3 -53 6 -5 6 -8 -2 -8 -18 0 -3 -39 19 -46 36 -11 103 -13 115 -2 7 6
13 8 13 4 0 -11 70 31 91 55 11 13 17 29 14 36 -2 8 -1 12 4 8 9 -5 27 70 23
88 -2 5 3 7 10 5 7 -3 14 -10 14 -16 1 -7 3 -15 4 -19 1 -5 2 -11 1 -15 -2
-16 30 -78 39 -73 5 3 12 0 16 -6 4 -8 3 -9 -4 -5 -21 13 -13 -10 11 -30 32
-28 43 -34 78 -44 25 -7 30 -6 25 5 -3 8 -1 17 5 20 5 4 9 3 8 -2 -6 -36 29
-41 54 -8 24 34 32 106 17 160 -11 39 -16 45 -34 40 -14 -4 -17 -3 -8 3 7 5
10 16 7 24 -7 17 -52 41 -64 34 -4 -3 -8 1 -8 7 0 7 10 14 21 14 92 5 164 49
157 96 0 4 4 7 10 7 5 0 7 5 4 10 -3 6 -1 10 4 10 20 0 11 36 -14 60 -14 13
-25 20 -25 16 0 -4 -10 2 -22 14 -12 11 -33 21 -47 21 -14 1 -39 2 -56 4 -34
2 -76 -11 -86 -26 -4 -6 -9 -4 -12 6 -4 9 -3 14 2 11 5 -3 11 4 15 17 9 36 7
87 -5 87 -5 0 -8 4 -4 10 7 12 -16 50 -31 50 -7 0 -11 8 -10 17 0 12 -7 19
-21 21 -13 2 -23 -1 -23 -7z m-65 -140 c-9 -8 -36 -10 -30 -2 2 4 11 8 20 8 8
0 13 -3 10 -6z m49 1 c3 -5 -1 -9 -9 -9 -8 0 -12 4 -9 9 3 4 7 8 9 8 2 0 6 -4
9 -8z m71 -1 c-9 -8 -36 -10 -30 -2 2 4 11 8 20 8 8 0 13 -3 10 -6z m-99 -43
c3 -4 -1 -5 -10 -4 -8 1 -18 5 -22 8 -3 4 1 5 10 4 8 -1 18 -5 22 -8z m114 6
c0 -8 -19 -13 -24 -6 -3 5 1 9 9 9 8 0 15 -2 15 -3z m-406 -42 c3 -5 -1 -9 -9
-9 -8 0 -12 4 -9 9 3 4 7 8 9 8 2 0 6 -4 9 -8z m72 -4 c3 -4 -1 -5 -10 -4 -8
1 -18 5 -22 8 -3 4 1 5 10 4 8 -1 18 -5 22 -8z m284 8 c0 -3 -4 -8 -10 -11 -5
-3 -10 -1 -10 4 0 6 5 11 10 11 6 0 10 -2 10 -4z m115 -5 c-9 -8 -36 -10 -30
-2 2 4 11 8 20 8 8 0 13 -3 10 -6z m139 -19 c3 -5 -1 -9 -9 -9 -8 0 -12 4 -9
9 3 4 7 8 9 8 2 0 6 -4 9 -8z m-177 -17 c0 -8 -4 -12 -9 -9 -5 3 -6 10 -3 15
9 13 12 11 12 -6z m-347 -1 c0 -8 -19 -13 -24 -6 -3 5 1 9 9 9 8 0 15 -2 15
-3z m234 -2 c3 -5 -1 -9 -9 -9 -8 0 -12 4 -9 9 3 4 7 8 9 8 2 0 6 -4 9 -8z
m-330 -41 c3 -5 -2 -15 -12 -22 -15 -12 -16 -12 -5 2 7 9 10 19 6 22 -3 4 -4
7 0 7 3 0 8 -4 11 -9z m600 1 c3 -5 -1 -9 -9 -9 -8 0 -12 4 -9 9 3 4 7 8 9 8
2 0 6 -4 9 -8z m56 2 c0 -8 -19 -13 -24 -6 -3 5 1 9 9 9 8 0 15 -2 15 -3z
m-436 -22 c3 -5 -1 -9 -9 -9 -8 0 -12 4 -9 9 3 4 7 8 9 8 2 0 6 -4 9 -8z
m-178 -38 c1 -9 0 -13 -4 -10 -3 4 -7 14 -8 22 -1 9 0 13 4 10 3 -4 7 -14 8
-22z m480 14 c3 -4 -1 -5 -10 -4 -8 1 -18 5 -22 8 -3 4 1 5 10 4 8 -1 18 -5
22 -8z m60 0 c3 -4 -1 -5 -10 -4 -8 1 -18 5 -22 8 -3 4 1 5 10 4 8 -1 18 -5
22 -8z m38 -24 c3 -8 2 -12 -4 -9 -6 3 -10 10 -10 16 0 14 7 11 14 -7z m-500
-12 c3 -5 -1 -9 -9 -9 -8 0 -12 4 -9 9 3 4 7 8 9 8 2 0 6 -4 9 -8z m81 -3 c2
-3 -8 -5 -25 -5 -16 0 -27 3 -25 6 5 8 42 6 50 -1z m260 2 c-9 -8 -36 -10 -30
-2 2 4 11 8 20 8 8 0 13 -3 10 -6z m-235 -55 c0 -2 -7 -7 -16 -10 -8 -3 -12
-2 -9 4 6 10 25 14 25 6z m176 -11 c-1 -8 -5 -17 -8 -21 -5 -4 -4 16 1 34 3 9
9 -1 7 -13z m40 0 c-1 -8 -5 -17 -8 -21 -5 -4 -4 16 1 34 3 9 9 -1 7 -13z
m-91 -35 c3 -6 -1 -7 -9 -4 -18 7 -21 14 -7 14 6 0 13 -4 16 -10z m-130 -19
c-9 -8 -36 -10 -30 -2 2 4 11 8 20 8 8 0 13 -3 10 -6z m300 0 c-9 -8 -36 -10
-30 -2 2 4 11 8 20 8 8 0 13 -3 10 -6z m-239 -37 c1 -9 0 -13 -4 -10 -3 4 -7
14 -8 22 -1 9 0 13 4 10 3 -4 7 -14 8 -22z m-121 -3 c-9 -8 -36 -10 -30 -2 2
4 11 8 20 8 8 0 13 -3 10 -6z m79 0 c3 -5 -2 -15 -12 -22 -15 -12 -16 -12 -5
2 7 9 10 19 6 22 -3 4 -4 7 0 7 3 0 8 -4 11 -9z m-139 -10 c3 -5 2 -12 -3 -15
-5 -3 -9 1 -9 9 0 17 3 19 12 6z m45 -31 c0 -5 -5 -10 -11 -10 -5 0 -7 5 -4
10 3 6 8 10 11 10 2 0 4 -4 4 -10z m320 -5 c0 -2 -9 -3 -19 -2 -11 0 -18 5
-15 9 4 6 34 0 34 -7z m96 -11 c1 -9 0 -13 -4 -10 -3 4 -7 14 -8 22 -1 9 0 13
4 10 3 -4 7 -14 8 -22z m-341 -23 c-9 -8 -36 -10 -30 -2 2 4 11 8 20 8 8 0 13
-3 10 -6z m298 -26 c4 -8 3 -16 -1 -19 -4 -3 -9 4 -9 15 -2 23 3 25 10 4z
m-317 -17 c3 -4 -1 -5 -10 -4 -8 1 -18 5 -22 8 -3 4 1 5 10 4 8 -1 18 -5 22
-8z m279 -18 c3 -5 1 -10 -4 -10 -6 0 -11 5 -11 10 0 6 2 10 4 10 3 0 8 -4 11
-10z"/>
<path d="M3677 3069 c-21 -11 -35 -24 -32 -29 3 -6 0 -8 -7 -5 -7 3 -24 -12
-38 -33 -26 -39 -33 -107 -17 -167 7 -25 6 -28 -5 -15 -26 31 -84 68 -121 78
-29 8 -50 7 -90 -4 -58 -17 -78 -36 -71 -67 3 -12 6 -32 8 -43 6 -46 85 -130
111 -120 9 3 13 2 10 -4 -3 -6 0 -10 7 -11 64 -4 78 -3 78 2 0 3 13 4 29 1 28
-4 35 -21 17 -39 -4 -4 -6 -2 -4 6 2 7 -3 16 -11 19 -9 3 -11 0 -6 -8 5 -9 4
-11 -3 -6 -7 4 -32 -7 -57 -24 -41 -28 -50 -40 -46 -63 0 -4 -4 -6 -11 -5 -16
4 -32 -72 -24 -116 5 -28 13 -37 34 -43 41 -11 124 -6 132 7 4 6 10 11 14 11
3 -1 20 6 36 14 32 17 55 53 63 100 7 35 25 92 27 85 1 -3 3 -21 6 -40 5 -46
24 -91 35 -84 5 3 6 -1 4 -8 -8 -21 43 -76 84 -89 70 -24 112 -15 121 26 1 6
6 15 11 22 13 15 9 113 -4 113 -6 0 -8 3 -4 6 7 8 -16 56 -38 78 -19 18 -40
22 -29 4 4 -7 3 -8 -5 -4 -6 4 -9 11 -6 16 3 4 -7 13 -22 18 -25 8 -22 9 22 9
55 0 132 32 127 52 -1 7 2 10 8 6 16 -10 55 85 42 104 -5 9 -16 14 -24 13 -7
-2 -10 -1 -6 3 12 13 -27 41 -72 52 -52 12 -135 9 -126 -6 3 -4 -4 -8 -16 -8
-15 -2 -18 2 -12 15 12 27 17 102 7 102 -5 0 -10 7 -10 14 0 23 -46 86 -63 85
-8 0 -32 -9 -53 -20z m33 -45 c0 -8 -19 -13 -24 -6 -3 5 1 9 9 9 8 0 15 -2 15
-3z m-44 -40 c1 -9 0 -13 -4 -10 -3 4 -7 14 -8 22 -1 9 0 13 4 10 3 -4 7 -14
8 -22z m0 -49 c-1 -8 -5 -17 -8 -21 -5 -4 -4 16 1 34 3 9 9 -1 7 -13z m78 7
c3 -5 -1 -9 -9 -9 -8 0 -12 4 -9 9 3 4 7 8 9 8 2 0 6 -4 9 -8z m50 0 c3 -5 -1
-9 -9 -9 -8 0 -12 4 -9 9 3 4 7 8 9 8 2 0 6 -4 9 -8z m-168 -27 c-1 -8 -5 -17
-8 -21 -5 -4 -4 16 1 34 3 9 9 -1 7 -13z m121 -10 c0 -8 -4 -12 -9 -9 -5 3 -6
10 -3 15 9 13 12 11 12 -6z m-302 -25 c3 -5 1 -10 -4 -10 -6 0 -11 5 -11 10 0
6 2 10 4 10 3 0 8 -4 11 -10z m-40 -19 c-9 -8 -36 -10 -30 -2 2 4 11 8 20 8 8
0 13 -3 10 -6z m220 0 c3 -5 2 -12 -3 -15 -5 -3 -9 1 -9 9 0 17 3 19 12 6z
m122 -6 c0 -8 -4 -12 -9 -9 -5 3 -6 10 -3 15 9 13 12 11 12 -6z m-397 -31 c0
-8 -19 -13 -24 -6 -3 5 1 9 9 9 8 0 15 -2 15 -3z m115 -3 c3 -5 2 -12 -3 -15
-5 -3 -9 1 -9 9 0 17 3 19 12 6z m361 -6 c-1 -8 -5 -17 -8 -21 -5 -4 -4 16 1
34 3 9 9 -1 7 -13z m38 7 c3 -5 -1 -9 -9 -9 -8 0 -12 4 -9 9 3 4 7 8 9 8 2 0
6 -4 9 -8z m136 2 c0 -8 -19 -13 -24 -6 -3 5 1 9 9 9 8 0 15 -2 15 -3z m-95
-24 c3 -5 1 -10 -4 -10 -6 0 -11 5 -11 10 0 6 2 10 4 10 3 0 8 -4 11 -10z
m-481 -19 c3 -4 -4 -17 -17 -27 -22 -19 -22 -19 -4 2 9 11 14 24 10 27 -3 4
-4 7 0 7 3 0 8 -4 11 -9z m120 1 c3 -5 -1 -9 -9 -9 -8 0 -12 4 -9 9 3 4 7 8 9
8 2 0 6 -4 9 -8z m242 -4 c3 -4 -1 -5 -10 -4 -8 1 -18 5 -22 8 -3 4 1 5 10 4
8 -1 18 -5 22 -8z m-179 -43 c0 -8 -4 -12 -9 -9 -5 3 -6 10 -3 15 9 13 12 11
12 -6z m259 0 c-1 -8 -5 -17 -8 -21 -5 -4 -4 16 1 34 3 9 9 -1 7 -13z m-440
-31 c1 -9 0 -13 -4 -10 -3 4 -7 14 -8 22 -1 9 0 13 4 10 3 -4 7 -14 8 -22z
m519 4 c5 4 5 1 1 -6 -6 -10 -11 -10 -22 -1 -8 6 -14 14 -14 16 0 3 6 0 13 -6
8 -6 18 -7 22 -3z m-478 -13 c0 -8 -4 -12 -9 -9 -5 3 -6 10 -3 15 9 13 12 11
12 -6z m359 0 c-1 -8 -5 -17 -8 -21 -5 -4 -4 16 1 34 3 9 9 -1 7 -13z m-200
-77 c3 -4 -1 -5 -10 -4 -8 1 -18 5 -22 8 -3 4 1 5 10 4 8 -1 18 -5 22 -8z
m-61 -37 c-9 -8 -36 -10 -30 -2 2 4 11 8 20 8 8 0 13 -3 10 -6z m109 1 c3 -5
-1 -9 -9 -9 -8 0 -12 4 -9 9 3 4 7 8 9 8 2 0 6 -4 9 -8z m152 -18 c1 -9 0 -13
-4 -10 -3 4 -7 14 -8 22 -1 9 0 13 4 10 3 -4 7 -14 8 -22z m-200 -20 c1 -9 0
-13 -4 -10 -3 4 -7 14 -8 22 -1 9 0 13 4 10 3 -4 7 -14 8 -22z m240 0 c1 -9 0
-13 -4 -10 -3 4 -7 14 -8 22 -1 9 0 13 4 10 3 -4 7 -14 8 -22z m-399 -16 c2
-17 0 -19 -7 -8 -5 8 -6 18 -4 22 8 12 10 10 11 -14z m323 16 c0 -8 -19 -13
-24 -6 -3 5 1 9 9 9 8 0 15 -2 15 -3z m-365 -43 c3 -5 2 -12 -3 -15 -5 -3 -9
1 -9 9 0 17 3 19 12 6z m201 -6 c-1 -8 -5 -17 -8 -21 -5 -4 -4 16 1 34 3 9 9
-1 7 -13z m280 0 c-1 -8 -5 -17 -8 -21 -5 -4 -4 16 1 34 3 9 9 -1 7 -13z
m-139 -10 c0 -8 -4 -12 -9 -9 -5 3 -6 10 -3 15 9 13 12 11 12 -6z m-333 -23
c3 -5 -1 -9 -9 -9 -8 0 -12 4 -9 9 3 4 7 8 9 8 2 0 6 -4 9 -8z m72 -4 c3 -4
-1 -5 -10 -4 -8 1 -18 5 -22 8 -3 4 1 5 10 4 8 -1 18 -5 22 -8z m59 3 c-9 -8
-36 -10 -30 -2 2 4 11 8 20 8 8 0 13 -3 10 -6z m260 0 c3 -5 2 -12 -3 -15 -5
-3 -9 1 -9 9 0 17 3 19 12 6z m74 -25 c9 -11 9 -16 -1 -22 -7 -4 -10 -4 -6 1
4 4 3 14 -3 22 -6 7 -9 13 -6 13 2 0 10 -6 16 -14z m-474 -5 c3 -5 2 -12 -3
-15 -5 -3 -9 1 -9 9 0 17 3 19 12 6z m122 -6 c0 -8 -4 -12 -9 -9 -5 3 -6 10
-3 15 9 13 12 11 12 -6z m278 -4 c-9 -8 -36 -10 -30 -2 2 4 11 8 20 8 8 0 13
-3 10 -6z m61 -43 c3 -4 -1 -5 -10 -4 -8 1 -18 5 -22 8 -3 4 1 5 10 4 8 -1 18
-5 22 -8z"/>
<path d="M563 2419 c-18 -12 -33 -27 -33 -35 0 -8 -4 -14 -10 -14 -15 0 -23
-70 -12 -107 10 -34 10 -34 -8 -18 -10 9 -23 14 -29 11 -5 -4 -13 -1 -17 5 -4
8 -3 9 4 5 7 -4 12 -3 12 3 0 21 -47 35 -113 32 -19 -1 -26 -5 -21 -13 4 -6 3
-8 -4 -5 -22 14 -40 -4 -35 -35 7 -45 21 -78 33 -78 6 0 9 -4 6 -8 -3 -5 13
-19 36 -32 25 -14 38 -17 33 -9 -7 11 -6 12 6 2 8 -6 29 -9 47 -7 41 5 40 0
-3 -20 -21 -10 -33 -22 -29 -28 4 -6 3 -8 -4 -4 -19 12 -52 -49 -52 -97 0 -49
1 -51 43 -61 22 -5 27 -4 21 6 -5 10 -4 10 5 2 18 -17 56 -5 97 30 29 25 37
39 38 69 1 47 23 49 32 2 3 -19 20 -50 38 -70 25 -30 40 -38 78 -42 45 -5 48
-4 59 23 26 65 3 151 -48 177 l-26 14 43 7 c49 8 110 64 110 101 0 25 -43 60
-87 69 -40 9 -105 -3 -96 -17 3 -5 1 -7 -5 -3 -7 4 -8 17 -2 35 4 15 4 34 0
41 -5 7 -6 19 -3 26 6 15 -40 64 -59 64 -7 0 -28 -10 -45 -21z m67 -59 c0 -5
-2 -10 -4 -10 -3 0 -8 5 -11 10 -3 6 -1 10 4 10 6 0 11 -4 11 -10z m-70 -16
c0 -8 -19 -13 -24 -6 -3 5 1 9 9 9 8 0 15 -2 15 -3z m-135 -83 c-9 -8 -36 -10
-30 -2 2 4 11 8 20 8 8 0 13 -3 10 -6z m121 -17 c1 -9 0 -13 -4 -10 -3 4 -7
14 -8 22 -1 9 0 13 4 10 3 -4 7 -14 8 -22z m159 -23 c-9 -8 -36 -10 -30 -2 2
4 11 8 20 8 8 0 13 -3 10 -6z m65 5 c0 -3 -4 -8 -10 -11 -5 -3 -10 -1 -10 4 0
6 5 11 10 11 6 0 10 -2 10 -4z m-264 -42 c1 -9 0 -13 -4 -10 -3 4 -7 14 -8 22
-1 9 0 13 4 10 3 -4 7 -14 8 -22z m-119 1 c0 -8 -4 -12 -9 -9 -5 3 -6 10 -3
15 9 13 12 11 12 -6z m39 -10 c-1 -8 -5 -17 -8 -21 -5 -4 -4 16 1 34 3 9 9 -1
7 -13z m374 9 c0 -8 -19 -13 -24 -6 -3 5 1 9 9 9 8 0 15 -2 15 -3z m-314 -46
c3 -4 -1 -5 -10 -4 -8 1 -18 5 -22 8 -3 4 1 5 10 4 8 -1 18 -5 22 -8z m78 -56
c3 -5 -1 -9 -9 -9 -8 0 -12 4 -9 9 3 4 7 8 9 8 2 0 6 -4 9 -8z m62 -7 c-1 -8
-5 -17 -8 -21 -5 -4 -4 16 1 34 3 9 9 -1 7 -13z m119 -7 c5 4 5 1 1 -6 -6 -10
-11 -10 -22 -1 -8 6 -14 14 -14 16 0 3 6 0 13 -6 8 -6 18 -7 22 -3z m-219 -10
c3 -4 -1 -5 -10 -4 -8 1 -18 5 -22 8 -3 4 1 5 10 4 8 -1 18 -5 22 -8z m-1 -38
c3 -5 1 -10 -4 -10 -6 0 -11 5 -11 10 0 6 2 10 4 10 3 0 8 -4 11 -10z m241 -2
c3 -4 -1 -5 -10 -4 -8 1 -18 5 -22 8 -3 4 1 5 10 4 8 -1 18 -5 22 -8z m-300
-40 c3 -4 -1 -5 -10 -4 -8 1 -18 5 -22 8 -3 4 1 5 10 4 8 -1 18 -5 22 -8z
m224 2 c0 -5 -2 -10 -4 -10 -3 0 -8 5 -11 10 -3 6 -1 10 4 10 6 0 11 -4 11
-10z m35 -39 c-9 -8 -36 -10 -30 -2 2 4 11 8 20 8 8 0 13 -3 10 -6z"/>
<path d="M4330 2283 c0 -14 -2 -15 -9 -5 -6 11 -14 8 -35 -15 -37 -38 -47 -65
-41 -118 5 -49 -3 -57 -23 -24 -8 12 -19 18 -28 15 -8 -3 -12 -2 -9 3 7 12
-31 25 -45 16 -5 -3 -10 -2 -10 3 0 5 -17 5 -40 -1 -22 -6 -40 -15 -40 -20 0
-4 -4 -6 -8 -3 -4 2 -9 -4 -9 -16 -1 -13 3 -18 12 -14 8 3 17 1 20 -5 4 -5 1
-8 -6 -7 -7 2 -14 -4 -16 -13 -5 -20 45 -81 58 -73 5 3 8 0 7 -8 -2 -8 5 -12
20 -11 13 2 21 -1 17 -6 -6 -11 35 -11 50 0 14 10 39 -6 31 -19 -4 -6 -13 -9
-22 -5 -9 3 -29 -10 -54 -36 -35 -37 -40 -47 -40 -91 0 -55 5 -60 59 -63 75
-3 137 43 147 110 1 6 6 19 12 28 7 14 10 10 15 -21 4 -23 20 -55 41 -78 30
-36 39 -40 82 -40 41 -1 49 2 48 16 -1 10 2 15 7 12 10 -6 13 13 10 66 -2 50
-9 63 -27 56 -14 -5 -15 -4 -4 9 10 12 7 18 -19 32 -17 10 -31 22 -31 26 0 5
4 5 10 2 18 -11 86 14 109 41 12 14 24 38 25 52 3 29 -18 57 -34 47 -6 -4 -9
-1 -8 6 6 28 -116 40 -126 13 -11 -30 -20 -5 -17 49 2 41 -2 59 -19 80 -24 31
-60 36 -60 10z m17 -75 c2 -17 0 -19 -7 -8 -5 8 -6 18 -4 22 8 12 10 10 11
-14z m-33 -26 c3 -5 -1 -9 -9 -9 -8 0 -12 4 -9 9 3 4 7 8 9 8 2 0 6 -4 9 -8z
m-164 -46 c0 -2 -8 -10 -17 -17 -16 -13 -17 -12 -4 4 13 16 21 21 21 13z m140
-12 c0 -8 -19 -13 -24 -6 -3 5 1 9 9 9 8 0 15 -2 15 -3z m16 -40 c1 -9 0 -13
-4 -10 -3 4 -7 14 -8 22 -1 9 0 13 4 10 3 -4 7 -14 8 -22z m157 1 c-7 -21 -12
-19 -10 4 0 11 5 18 9 15 4 -3 5 -11 1 -19z m103 13 c3 -4 -1 -5 -10 -4 -8 1
-18 5 -22 8 -3 4 1 5 10 4 8 -1 18 -5 22 -8z m-440 -40 c3 -4 -1 -5 -10 -4 -8
1 -18 5 -22 8 -3 4 1 5 10 4 8 -1 18 -5 22 -8z m108 4 c3 -5 -1 -9 -9 -9 -8 0
-12 4 -9 9 3 4 7 8 9 8 2 0 6 -4 9 -8z m211 -41 c-9 -8 -36 -10 -30 -2 2 4 11
8 20 8 8 0 13 -3 10 -6z m60 0 c3 -5 2 -12 -3 -15 -5 -3 -9 1 -9 9 0 17 3 19
12 6z m-239 -66 c-1 -8 -5 -17 -8 -21 -5 -4 -4 16 1 34 3 9 9 -1 7 -13z m-40
-51 c1 -9 0 -13 -4 -10 -3 4 -7 14 -8 22 -1 9 0 13 4 10 3 -4 7 -14 8 -22z
m240 0 c1 -9 0 -13 -4 -10 -3 4 -7 14 -8 22 -1 9 0 13 4 10 3 -4 7 -14 8 -22z
m-201 -3 c3 -5 2 -12 -3 -15 -5 -3 -9 1 -9 9 0 17 3 19 12 6z m-85 -17 c0 -8
-19 -13 -24 -6 -3 5 1 9 9 9 8 0 15 -2 15 -3z m207 -19 c0 -8 -4 -12 -9 -9 -5
3 -6 10 -3 15 9 13 12 11 12 -6z m-161 -10 c-1 -8 -5 -17 -8 -21 -5 -4 -4 16
1 34 3 9 9 -1 7 -13z m280 -20 c-1 -8 -5 -17 -8 -21 -5 -4 -4 16 1 34 3 9 9
-1 7 -13z m-361 -14 c3 -5 2 -12 -3 -15 -5 -3 -9 1 -9 9 0 17 3 19 12 6z"/>
<path d="M2957 2229 c-202 -45 -257 -299 -103 -476 38 -43 145 -103 185 -103
25 0 25 -5 6 -84 -86 -339 -219 -526 -374 -528 -54 0 -98 19 -135 59 -28 29
-86 133 -86 153 0 6 11 36 25 67 73 158 137 394 149 549 13 165 -60 254 -209
254 -127 0 -214 -68 -240 -190 -23 -105 5 -457 51 -633 18 -69 15 -75 -65
-149 -72 -67 -137 -100 -207 -106 -82 -7 -121 10 -150 63 -27 49 8 302 87 632
59 247 27 398 -99 460 -92 45 -231 28 -334 -40 -50 -34 -94 -105 -96 -159 -5
-81 29 -85 128 -18 30 21 64 41 76 44 32 10 71 -27 81 -77 17 -81 7 -149 -59
-412 -77 -307 -79 -316 -83 -387 -11 -189 92 -317 277 -346 176 -27 338 33
477 177 33 35 55 51 58 43 12 -31 87 -133 115 -157 66 -55 107 -69 198 -68
286 4 490 219 585 618 13 55 27 127 30 160 8 78 13 95 30 95 7 0 37 21 65 48
104 95 82 208 -27 141 -19 -12 -36 -20 -38 -17 -2 2 -5 37 -6 78 -6 197 -83
306 -222 314 -29 2 -69 -1 -90 -5z m125 -200 c19 -35 26 -179 10 -179 -13 0
-57 52 -70 83 -19 43 -15 114 6 126 25 15 35 9 54 -30z m-646 -94 c29 -45 17
-205 -28 -355 l-23 -75 -11 70 c-18 117 -18 319 1 355 19 37 39 38 61 5z"/>
<path d="M1062 1990 c-28 -13 -41 -24 -36 -31 4 -8 3 -9 -4 -5 -19 11 -72 -82
-72 -125 0 -45 9 -71 21 -63 5 3 6 -2 3 -10 -8 -21 -35 -29 -27 -8 3 9 2 14
-2 10 -5 -5 -14 1 -22 12 -8 11 -20 20 -28 20 -7 0 -15 5 -17 10 -2 6 -18 12
-37 15 -18 2 -35 6 -38 9 -8 8 -107 -25 -123 -41 -13 -14 -13 -15 0 -7 13 7
13 5 2 -8 -10 -13 -10 -17 0 -21 8 -4 9 -6 1 -6 -23 -2 12 -76 59 -123 36 -37
54 -48 80 -49 63 -2 103 3 118 14 9 7 8 4 -3 -9 -9 -11 -14 -24 -10 -28 4 -4
-1 -4 -10 0 -12 4 -23 0 -33 -12 -9 -11 -12 -13 -9 -6 6 11 3 11 -14 0 -12 -7
-19 -18 -17 -25 3 -7 -1 -10 -8 -7 -8 3 -22 -9 -34 -28 -24 -39 -41 -115 -23
-104 6 4 11 3 11 -3 0 -5 -4 -11 -10 -13 -21 -7 3 -48 34 -57 56 -15 166 5
166 31 0 5 4 7 8 4 24 -15 72 82 75 151 0 7 6 14 12 17 7 2 12 -1 12 -7 -1
-38 4 -68 11 -64 4 3 8 -6 8 -19 2 -31 47 -90 84 -109 42 -22 116 -27 130 -10
7 8 10 22 6 30 -3 9 -2 13 4 10 6 -3 10 -5 10 -3 10 79 11 120 4 115 -5 -3 -9
7 -10 23 -1 34 -32 78 -61 86 -23 6 -52 34 -37 35 5 0 29 1 54 2 48 3 104 32
93 50 -3 6 -1 7 5 3 6 -3 16 3 22 14 6 11 7 20 3 20 -4 0 -3 4 3 8 6 4 15 16
21 26 8 15 5 24 -16 45 -48 49 -79 62 -146 64 -53 2 -69 -2 -97 -22 -21 -16
-28 -18 -18 -7 16 21 21 38 25 86 3 40 -13 82 -28 73 -6 -3 -7 -1 -3 5 8 13
-23 61 -39 61 -5 1 -29 -8 -53 -19z m84 -86 c1 -9 0 -13 -4 -10 -3 4 -7 14 -8
22 -1 9 0 13 4 10 3 -4 7 -14 8 -22z m-82 -2 c3 -5 -1 -9 -9 -9 -8 0 -12 4 -9
9 3 4 7 8 9 8 2 0 6 -4 9 -8z m-39 -42 c3 -5 1 -10 -4 -10 -6 0 -11 5 -11 10
0 6 2 10 4 10 3 0 8 -4 11 -10z m121 -42 c3 -4 -1 -5 -10 -4 -8 1 -18 5 -22 8
-3 4 1 5 10 4 8 -1 18 -5 22 -8z m81 -33 c0 -8 -4 -12 -9 -9 -5 3 -6 10 -3 15
9 13 12 11 12 -6z m-382 -4 c-9 -8 -36 -10 -30 -2 2 4 11 8 20 8 8 0 13 -3 10
-6z m180 0 c-9 -8 -36 -10 -30 -2 2 4 11 8 20 8 8 0 13 -3 10 -6z m261 -16
c-1 -8 -5 -17 -8 -21 -5 -4 -4 16 1 34 3 9 9 -1 7 -13z m-100 -10 c-1 -8 -5
-17 -8 -21 -5 -4 -4 16 1 34 3 9 9 -1 7 -13z m39 -14 c3 -5 2 -12 -3 -15 -5
-3 -9 1 -9 9 0 17 3 19 12 6z m119 0 c3 -5 -2 -15 -12 -22 -15 -12 -16 -12 -5
2 7 9 10 19 6 22 -3 4 -4 7 0 7 3 0 8 -4 11 -9z m-44 -15 c0 -2 -8 -10 -17
-17 -16 -13 -17 -12 -4 4 13 16 21 21 21 13z m-555 -15 c3 -5 2 -12 -3 -15 -5
-3 -9 1 -9 9 0 17 3 19 12 6z m641 -16 c-1 -8 -5 -17 -8 -21 -5 -4 -4 16 1 34
3 9 9 -1 7 -13z m-400 -31 c1 -9 0 -13 -4 -10 -3 4 -7 14 -8 22 -1 9 0 13 4
10 3 -4 7 -14 8 -22z m174 20 c0 -8 -19 -13 -24 -6 -3 5 1 9 9 9 8 0 15 -2 15
-3z m-413 -29 c0 -8 -4 -12 -9 -9 -5 3 -6 10 -3 15 9 13 12 11 12 -6z m98 6
c-9 -8 -36 -10 -30 -2 2 4 11 8 20 8 8 0 13 -3 10 -6z m355 -1 c-8 -5 -19 -10
-25 -10 -5 0 -3 5 5 10 8 5 20 10 25 10 6 0 3 -5 -5 -10z m125 1 c-9 -8 -36
-10 -30 -2 2 4 11 8 20 8 8 0 13 -3 10 -6z m22 -36 c0 -8 -4 -12 -9 -9 -5 3
-6 10 -3 15 9 13 12 11 12 -6z m-482 -4 c-9 -8 -36 -10 -30 -2 2 4 11 8 20 8
8 0 13 -3 10 -6z m340 0 c-9 -8 -36 -10 -30 -2 2 4 11 8 20 8 8 0 13 -3 10 -6z
m-99 -77 c1 -9 0 -13 -4 -10 -3 4 -7 14 -8 22 -1 9 0 13 4 10 3 -4 7 -14 8
-22z m119 7 c3 -5 2 -12 -3 -15 -5 -3 -9 1 -9 9 0 17 3 19 12 6z m-279 -36
c-1 -8 -5 -17 -8 -21 -5 -4 -4 16 1 34 3 9 9 -1 7 -13z m204 11 c0 -3 -4 -8
-10 -11 -5 -3 -10 -1 -10 4 0 6 5 11 10 11 6 0 10 -2 10 -4z m-166 -32 c3 -8
2 -12 -4 -9 -6 3 -10 10 -10 16 0 14 7 11 14 -7z m247 -17 c-6 -8 -7 -18 -3
-22 4 -5 1 -5 -6 -1 -10 6 -10 11 -1 22 6 8 14 14 16 14 3 0 0 -6 -6 -13z
m-325 -33 c1 -9 0 -13 -4 -10 -3 4 -7 14 -8 22 -1 9 0 13 4 10 3 -4 7 -14 8
-22z m408 18 c3 -5 -1 -9 -9 -9 -8 0 -12 4 -9 9 3 4 7 8 9 8 2 0 6 -4 9 -8z
m-168 -27 c-1 -8 -5 -17 -8 -21 -5 -4 -4 16 1 34 3 9 9 -1 7 -13z m-272 -13
c3 -5 -1 -9 -9 -9 -8 0 -12 4 -9 9 3 4 7 8 9 8 2 0 6 -4 9 -8z m152 -4 c3 -4
-1 -5 -10 -4 -8 1 -18 5 -22 8 -3 4 1 5 10 4 8 -1 18 -5 22 -8z m-80 -23 c-1
-8 -5 -17 -8 -21 -5 -4 -4 16 1 34 3 9 9 -1 7 -13z m264 9 c0 -8 -19 -13 -24
-6 -3 5 1 9 9 9 8 0 15 -2 15 -3z m-63 -29 c0 -8 -4 -12 -9 -9 -5 3 -6 10 -3
15 9 13 12 11 12 -6z m119 3 c3 -4 -1 -5 -10 -4 -8 1 -18 5 -22 8 -3 4 1 5 10
4 8 -1 18 -5 22 -8z m59 3 c-9 -8 -36 -10 -30 -2 2 4 11 8 20 8 8 0 13 -3 10
-6z m-460 -40 c-9 -8 -36 -10 -30 -2 2 4 11 8 20 8 8 0 13 -3 10 -6z m82 -6
c0 -8 -4 -12 -9 -9 -5 3 -6 10 -3 15 9 13 12 11 12 -6z m280 0 c0 -8 -4 -12
-9 -9 -5 3 -6 10 -3 15 9 13 12 11 12 -6z m38 -34 c-9 -8 -36 -10 -30 -2 2 4
11 8 20 8 8 0 13 -3 10 -6z"/>
<path d="M3835 1686 c-22 -12 -39 -28 -37 -34 1 -7 -3 -11 -10 -9 -6 1 -22
-16 -35 -38 -24 -40 -26 -91 -8 -152 5 -15 3 -23 -4 -23 -6 0 -11 6 -11 13 -1
17 -70 65 -106 72 -16 4 -40 6 -54 5 -14 -1 -31 -2 -37 -3 -7 0 -13 -4 -13 -9
0 -5 -3 -7 -7 -5 -15 9 -50 -12 -56 -32 -3 -14 -1 -19 6 -14 7 4 6 -1 -2 -10
-7 -10 -9 -17 -3 -17 6 0 9 -8 7 -17 -4 -27 13 -53 62 -100 45 -44 52 -46 148
-45 46 1 48 0 23 -11 -16 -6 -28 -15 -28 -20 0 -4 -4 -6 -8 -3 -10 6 -63 -40
-87 -78 -31 -48 -29 -148 3 -161 34 -13 84 -15 124 -4 43 11 72 32 60 43 -3 4
1 4 10 1 20 -8 53 37 44 60 -3 9 -2 13 3 10 10 -6 15 6 26 64 7 35 7 35 29
-31 24 -74 57 -123 98 -144 15 -8 28 -12 28 -9 0 3 9 1 19 -5 14 -7 21 -6 24
3 4 9 6 9 6 0 1 -7 6 -13 12 -13 5 0 7 6 3 13 -5 8 -2 8 9 -2 15 -12 19 -9 38
33 15 34 19 60 16 94 -6 57 -16 84 -28 76 -5 -3 -7 1 -4 8 7 19 -5 33 -55 63
-25 15 -37 24 -28 22 9 -3 19 -1 22 6 2 7 5 8 5 1 1 -6 14 -9 34 -6 59 9 117
57 138 117 12 33 11 37 -11 59 -37 36 -103 68 -111 55 -4 -7 -9 -8 -13 -1 -8
13 -76 8 -106 -8 -21 -11 -22 -11 -16 6 19 46 18 91 -3 130 -44 83 -53 87
-116 50z m56 -3 c13 -16 12 -17 -3 -4 -17 13 -22 21 -14 21 2 0 10 -8 17 -17z
m-5 -65 c3 -4 -1 -5 -10 -4 -8 1 -18 5 -22 8 -3 4 1 5 10 4 8 -1 18 -5 22 -8z
m-99 -35 c-4 -3 -1 -13 6 -22 11 -14 10 -14 -5 -2 -16 12 -16 31 -1 31 4 0 3
-3 0 -7z m112 -27 c9 -11 9 -16 -1 -22 -7 -4 -10 -4 -6 1 4 4 3 14 -3 22 -6 7
-9 13 -6 13 2 0 10 -6 16 -14z m-85 -54 c3 -5 -1 -9 -9 -9 -8 0 -12 4 -9 9 3
4 7 8 9 8 2 0 6 -4 9 -8z m76 4 c0 -3 -4 -8 -10 -11 -5 -3 -10 -1 -10 4 0 6 5
11 10 11 6 0 10 -2 10 -4z m-223 -41 c0 -8 -4 -12 -9 -9 -5 3 -6 10 -3 15 9
13 12 11 12 -6z m120 0 c0 -8 -4 -12 -9 -9 -5 3 -6 10 -3 15 9 13 12 11 12 -6z
m356 0 c-3 -9 -8 -14 -10 -11 -3 3 -2 9 2 15 9 16 15 13 8 -4z m-553 -1 c0 -8
-19 -13 -24 -6 -3 5 1 9 9 9 8 0 15 -2 15 -3z m296 -6 c3 -4 -1 -5 -10 -4 -8
1 -18 5 -22 8 -3 4 1 5 10 4 8 -1 18 -5 22 -8z m120 0 c3 -4 -1 -5 -10 -4 -8
1 -18 5 -22 8 -3 4 1 5 10 4 8 -1 18 -5 22 -8z m-340 -54 c1 -9 0 -13 -4 -10
-3 4 -7 14 -8 22 -1 9 0 13 4 10 3 -4 7 -14 8 -22z m159 17 c-9 -8 -36 -10
-30 -2 2 4 11 8 20 8 8 0 13 -3 10 -6z m241 -3 c3 -4 -1 -5 -10 -4 -8 1 -18 5
-22 8 -3 4 1 5 10 4 8 -1 18 -5 22 -8z m80 -3 c-1 -8 -5 -17 -8 -21 -5 -4 -4
16 1 34 3 9 9 -1 7 -13z m44 9 c0 -8 -19 -13 -24 -6 -3 5 1 9 9 9 8 0 15 -2
15 -3z m-685 -24 c3 -5 1 -10 -4 -10 -6 0 -11 5 -11 10 0 6 2 10 4 10 3 0 8
-4 11 -10z m39 -18 c3 -5 -1 -9 -9 -9 -8 0 -12 4 -9 9 3 4 7 8 9 8 2 0 6 -4 9
-8z m56 2 c0 -8 -19 -13 -24 -6 -3 5 1 9 9 9 8 0 15 -2 15 -3z m107 -16 c2
-17 0 -19 -7 -8 -5 8 -6 18 -4 22 8 12 10 10 11 -14z m-81 -13 c-1 -8 -5 -17
-8 -21 -5 -4 -4 16 1 34 3 9 9 -1 7 -13z m480 0 c-1 -8 -5 -17 -8 -21 -5 -4
-4 16 1 34 3 9 9 -1 7 -13z m-101 -14 c-9 -8 -36 -10 -30 -2 2 4 11 8 20 8 8
0 13 -3 10 -6z m-218 -116 c0 -8 -4 -12 -9 -9 -5 3 -6 10 -3 15 9 13 12 11 12
-6z m120 0 c0 -8 -4 -12 -9 -9 -5 3 -6 10 -3 15 9 13 12 11 12 -6z m-161 -21
c1 -9 0 -13 -4 -10 -3 4 -7 14 -8 22 -1 9 0 13 4 10 3 -4 7 -14 8 -22z m-81
-23 c3 -5 2 -12 -3 -15 -5 -3 -9 1 -9 9 0 17 3 19 12 6z m340 0 c-9 -8 -36
-10 -30 -2 2 4 11 8 20 8 8 0 13 -3 10 -6z m-190 -21 c-3 -5 -12 -10 -18 -10
-7 0 -6 4 3 10 19 12 23 12 15 0z m124 -4 c9 -11 9 -16 -1 -22 -7 -4 -10 -4
-6 1 4 4 3 14 -3 22 -6 7 -9 13 -6 13 2 0 10 -6 16 -14z m-274 -15 c-9 -8 -36
-10 -30 -2 2 4 11 8 20 8 8 0 13 -3 10 -6z m381 -3 c3 -4 -1 -5 -10 -4 -8 1
-18 5 -22 8 -3 4 1 5 10 4 8 -1 18 -5 22 -8z m-460 -34 c1 -9 0 -13 -4 -10 -3
4 -7 14 -8 22 -1 9 0 13 4 10 3 -4 7 -14 8 -22z m161 -9 c0 -8 -4 -12 -9 -9
-5 3 -6 10 -3 15 9 13 12 11 12 -6z m-63 -21 c3 -8 2 -12 -4 -9 -6 3 -10 10
-10 16 0 14 7 11 14 -7z m375 2 c9 -11 9 -16 -1 -22 -7 -4 -10 -4 -6 1 4 4 3
14 -3 22 -6 7 -9 13 -6 13 2 0 10 -6 16 -14z m-74 -15 c-9 -8 -36 -10 -30 -2
2 4 11 8 20 8 8 0 13 -3 10 -6z m-320 -40 c-9 -8 -36 -10 -30 -2 2 4 11 8 20
8 8 0 13 -3 10 -6z m49 1 c3 -5 -1 -9 -9 -9 -8 0 -12 4 -9 9 3 4 7 8 9 8 2 0
6 -4 9 -8z"/>
</g>
</svg>
